<?xml version="1.0" encoding="UTF-8"?>
<svg width="1200pt" height="1200pt" version="1.1" viewBox="0 0 1200 1200" xmlns="http://www.w3.org/2000/svg">
 <g>
  <path d="m652.76 250v66.672h400.01v816.66h-600v-665.52l-66.684-25.656v757.85h733.34v-950z"/>
  <path d="m602.77 350.54v-124.81l-150 57.711-150-57.711v124.81l150 57.723z"/>
  <path d="m199.9 152.64-0.023438 0.011719-16.383-6.2891-0.28516-0.14453-0.10938 0.20703-102.53 179.86 47.184 18.262 75-132.17v160.75l50.004 19.344v-219.48l-52.656-20.258z"/>
  <path d="m452.77 250 325-124.99-325-125-325.01 125 55.598 21.121 199.76-77.113 69.648 26.785-199.74 77.125z"/>
  <path d="m519.43 466.67h300v33.324h-300z"/>
  <path d="m519.43 600h300v33.324h-300z"/>
  <path d="m519.43 733.32h300v33.348h-300z"/>
  <path d="m519.43 866.68h300v33.324h-300z"/>
  <path d="m519.43 1e3h300v33.324h-300z"/>
  <path d="m919.42 433.33v33.336h-33.336v33.336h33.336v33.324h33.336v-33.324h33.324v-33.336h-33.324v-33.336z"/>
  <path d="m886.09 600h99.996v33.324h-99.996z"/>
  <path d="m886.09 766.68h33.336v33.324h33.336v-33.324h33.324v-33.359h-33.324v-33.324h-33.336v33.324h-33.336z"/>
  <path d="m886.09 866.68h99.996v33.324h-99.996z"/>
  <path d="m886.09 1033.3h33.336v33.359h33.336v-33.359h33.324v-33.324h-33.324v-33.324h-33.336v33.324h-33.336z"/>
 </g>
</svg>
